<svg version="1" xmlns="http://www.w3.org/2000/svg" viewBox="0 0 1000 1000"><path d="M524 163l-45 116-30-34-30-33-16 44-14 44c-1 1-25-51-54-114-44-96-52-114-53-108l6 101 7 96-57-55c-31-30-56-55-57-54l15 107 14 106A7447 7447 0 0 1 10 236l123 226c4 8 5 11 3 12l-60 15-57 15 13 11 19 17 6 5 20-5 24-7a798 798 0 0 1 95-25c2-1-11-25-31-64l-34-63 66 46 66 46-25-182c-1-6 3-2 52 47l54 53-1-13c-8-91-10-90 22-20l29 62c1 1 8-19 19-55l20-61c1-5 4-2 29 28l29 34c1 1 14-33 30-75 22-57 30-75 31-72a1966 1966 0 0 1 21 147l50-28c28-16 61-33 75-39 17-8 24-12 24-14l-1-25c0-12-1-21-2-21l-58 31c-30 18-55 31-56 31l-17-122-18-122c-1-1-21 51-46 114zM894 279l-32 11 8 17 7 17 26-28 24-29-33 12zM771 284l-23 12 7 45a1701 1701 0 0 0 18 89l-13-15c-14-18-36-42-61-68l-17-18-25 13c-18 9-25 14-24 16l72 167c2 4 3 3 19-4l17-10a2228 2228 0 0 0-56-125l-4-11 5 7c14 17 33 40 63 72l31 34 14-7 15-7a2787 2787 0 0 0-26-150l16 28 56 100c1 1 37-16 37-17 0-3-94-164-96-164l-25 13zM533 443c-14 3-32 14-42 25-43 47-30 133 23 159 43 20 99 4 120-35 9-17 12-33 12-56 0-42-17-73-50-88-12-6-15-6-34-7-12 0-25 0-29 2zm44 37c17 12 24 27 24 57 0 32-9 52-28 61-22 10-45-1-56-26-4-8-5-13-5-34 0-19 1-26 4-33 9-21 21-30 41-30 10 0 14 1 20 5zM326 464c-10 1-29 9-38 15-46 32-52 110-10 154 15 16 31 24 55 25 54 2 91-27 98-79 4-31-6-68-25-89a91 91 0 0 0-80-26zm27 37c11 4 22 17 28 31 4 10 4 16 4 35 0 21 0 24-5 33-7 15-17 22-33 23-20 2-34-8-44-30a93 93 0 0 1-1-73c9-20 32-28 51-19z"/><path d="M880 489a1738 1738 0 0 1-52 34 984 984 0 0 1 40 70 1667 1667 0 0 1-98-27l57 108 56 108-114-70c-62-40-114-71-114-71l55 123-8-4c-60-35-85-49-86-48-1 0-2 11-2 23l-2 34-1 11-30-33-40-43-10-11 1 54 1 52a4484 4484 0 0 1-60-97c-1-1-5 14-10 32l-10 33-7-17-7-15c-1 0-23 21-49 48s-47 48-48 46l11-71 11-71-81 36c-43 21-79 37-80 37l7-13 6-12-31 12-29 12-27 45c-15 25-26 46-26 47l104-48c63-29 104-47 104-46 1 2-6 44-14 95l-15 95c0 2 29-26 71-68l70-73 3 6 18 48 17 40c1-1 7-22 13-48l13-47c1-1 21 31 46 72l45 74v-23a4646 4646 0 0 0-3-127l36 39 37 39a2183 2183 0 0 0 5-100l73 41 73 41-26-57-25-57a8203 8203 0 0 1 242 150l-69-131-71-134 50 13 52 14a1992 1992 0 0 0-69-121c-1-1 16-13 39-27l46-29 7-5-25-5-29-7c-2 0-19 10-41 24zM136 538c-18 4-64 18-69 22a4747 4747 0 0 0 46 180c1 1 35-6 51-11 35-10 59-25 67-43 5-10 5-31 2-41-7-15-21-26-38-29l-8-1 8-9c16-18 15-40-1-56-13-13-32-17-58-12zm24 38c7 8 7 21-1 28-6 6-21 13-29 14-6 1-6 0-12-20-4-17-5-21-2-22 21-8 37-8 44 0zm23 73c5 5 7 8 7 15 2 12-3 21-14 27-10 6-27 10-29 8-3-3-15-48-13-49 3-3 16-6 29-6 12 0 14 0 20 5z"/>
</svg>
