<svg version="1.1" xmlns="http://www.w3.org/2000/svg" xmlns:xlink="http://www.w3.org/1999/xlink" x="0px" y="0px" viewBox="0 0 1000 1000" enable-background="new 0 0 1000 1000" xml:space="preserve">
<g><g transform="translate(0.000000,511.000000) scale(0.100000,-0.100000)"><path d="M5243.8,3476.6C5000,2840,4794.5,2318.1,4786.4,2318.1c-6,0-141,155.1-300.2,344.5c-157.1,187.4-292.1,336.5-300.2,326.4c-10.1-8.1-76.6-205.5-151.1-439.2c-74.6-231.7-141-429.1-149.1-437.2c-6.1-8.1-247.8,503.7-535.9,1138.4C2912.7,4210,2826,4391.4,2820,4332.9c-2-38.3,26.2-495.6,64.5-1017.5c38.3-519.8,66.5-949,62.5-955c-6-4-261.9,241.8-568.2,548c-308.3,306.3-562.1,550-564.1,542c-4-8.1,62.5-489.6,145.1-1069.9c82.6-582.3,149.1-1059.8,145.1-1059.8c-2-2-453.3,320.3-1001.4,715.3C555.4,2433,104,2755.4,100,2753.3c-4-4,987.3-1831.5,1227-2264.6c42.3-76.6,52.4-108.8,34.2-114.8c-14.1-4-284.1-74.6-598.4-153.1L190.7,73.7L319.6-43.2c70.5-64.5,157.1-141,189.4-167.2l62.5-48.4l199.5,50.4c110.8,26.2,219.6,58.4,241.8,68.5c22.2,10.1,239.8,70.5,483.5,131c243.8,62.5,453.3,116.8,467.4,120.9c14.1,4-108.8,249.8-318.3,634.7c-189.4,346.5-340.5,630.6-336.5,634.7c4,4,300.2-205.5,660.8-465.4c360.7-259.9,656.8-463.4,660.8-453.3c4,14.1-203.5,1519.2-249.8,1815.3c-12.1,64.5,32.2,26.2,523.8-463.4l537.9-533.9l-12.1,131c-78.6,912.7-96.7,898.6,221.6,201.5c147.1-326.4,276-606.5,286.1-620.6c10.1-16.1,82.6,187.4,195.4,544c98.7,314.3,187.4,592.3,197.5,616.5c14.1,44.3,40.3,20.2,290.1-282.1c151.1-179.3,280-334.4,288.1-342.5c6.1-8.1,145.1,328.4,304.2,749.5c219.6,576.2,296.2,753.5,306.3,719.3c8-24.2,56.4-360.7,108.8-749.5c52.4-386.8,98.7-709.2,100.7-713.2c4-4,231.7,118.9,505.7,274c274,157.1,608.5,332.4,741.4,392.9c173.3,78.6,241.8,118.9,239.8,143c0,18.1-2,129-4,245.8c-2,116.9-12.1,211.6-22.2,211.6c-10.1,0-270-141-576.2-314.3c-304.2-173.3-558.1-312.3-562.1-308.3c-4,4-82.6,552.1-175.3,1216.9c-90.7,664.9-171.3,1214.9-179.3,1223C5691.1,4629.1,5485.6,4113.3,5243.8,3476.6z"/><path d="M8941,2324.2c-171.3-62.5-314.3-114.8-318.3-116.9c-2-2,30.2-78.6,72.5-171.3l74.6-165.2l257.9,284.1c143.1,155.1,249.8,284.1,241.8,282.1C9261.3,2437,9112.2,2386.6,8941,2324.2z"/><path d="M7709.9,2271.8l-231.7-124.9l74.5-443.3c42.3-243.8,98.7-542,126.9-664.9c28.2-120.9,48.3-221.6,46.3-225.7c-4-2-60.4,66.5-129,151.1c-141,177.3-356.6,417.1-608.5,677l-173.3,179.3l-247.8-128.9c-177.3-92.7-245.8-137-239.8-159.2c10.1-36.3,695.1-1625.9,721.3-1676.3c18.1-32.2,32.2-28.2,189.4,48.4c94.7,48.3,171.3,90.7,171.3,98.7c0,6-114.8,265.9-253.9,574.2c-139,308.3-276,612.5-302.2,672.9l-48.4,110.8l54.4-70.5c137-169.2,334.5-396.9,626.6-719.3l314.3-344.5l141,70.5c78.6,38.3,147.1,74.5,149.1,76.6c10.1,8.1-189.4,1184.7-229.7,1356c-16.1,70.5-28.2,133-28.2,141c0,8.1,72.5-118.9,159.2-282.1c151.1-280.1,544-983.2,560.1-1001.4c8-10.1,368.7,163.2,368.7,177.3c0,30.2-938.9,1634-957,1632C7953.7,2396.7,7838.9,2340.3,7709.9,2271.8z"/><path d="M5326.4,684.1c-135-32.2-312.3-141-415-253.9C4482.2-39.2,4607.1-903.5,5141-1155.4c431.2-203.5,989.3-42.3,1196.8,346.6c90.7,169.2,124.9,324.4,124.9,558.1c0,425.1-171.3,729.3-497.7,880.5c-120.9,56.4-157.1,64.5-346.5,68.5C5501.7,702.3,5370.7,696.2,5326.4,684.1z M5767.6,311.4c175.3-118.9,239.7-270,239.7-572.2c2-322.4-88.6-519.8-278-606.5c-217.6-98.7-445.3,4-560.1,253.9c-40.3,86.6-46.3,133-46.3,342.5c0,187.4,8,261.9,36.3,332.4c86.6,209.5,207.5,300.2,409,302.2C5668.9,363.8,5705.2,353.7,5767.6,311.4z"/><path d="M3259.2,470.6c-96.7-14.1-292.1-92.7-374.8-149.1C2417,1.1,2362.6-778.6,2777.7-1217.8c155.1-165.2,316.3-237.7,548-247.8c544-26.2,918.7,270,983.2,781.7c40.3,310.3-62.5,685-249.8,896.6C3881.8,414.2,3559.4,518.9,3259.2,470.6z M3531.2,103.9c108.8-48.3,217.6-173.3,274-316.3c40.3-100.7,46.3-155.1,48.3-350.6c0-207.5-6-241.8-50.4-330.4c-76.6-151.1-175.3-219.6-330.4-229.7c-203.5-14.1-344.5,80.6-443.3,298.2c-104.8,227.7-108.8,535.9-10.1,737.4C3112.1,105.9,3339.8,190.5,3531.2,103.9z"/><path d="M8799.9,220.7c-205.5-133-407-261.9-447.3-284.1c-42.3-24.2-76.6-48.4-76.6-54.4c0-8.1,88.7-167.2,199.5-354.6C8584.3-661.7,8673-816.9,8671-818.9c-2-2-219.6,60.4-483.6,137c-263.9,78.6-483.6,137-487.6,135c-4-4,249.8-493.6,566.1-1084c314.3-592.4,568.2-1079.9,564.2-1084s-517.8,314.3-1142.4,707.2c-622.6,392.9-1138.4,711.2-1142.4,707.2c-4-4,517.8-1152.5,558.1-1225c4-8-30.2,6-78.6,34.2c-604.4,350.6-856.3,491.6-868.4,483.6c-10.1-4-16.1-110.8-18.1-233.7c-2-124.9-8.1-276-16.1-338.5l-12.1-112.8l-302.2,328.4c-165.2,181.3-346.5,376.8-398.9,435.2l-96.7,106.8l12.1-533.9c8-294.2,10.1-529.9,4-523.8c-4,6-139,223.6-296.2,483.6c-157.1,259.9-294.2,481.5-302.2,489.6c-8.1,8.1-54.4-139-102.8-326.4c-48.3-189.4-92.7-336.5-100.7-328.4c-6,8.1-38.3,84.6-68.5,171.3c-30.2,84.6-62.5,155.1-70.5,155.1s-227.7-217.6-485.6-485.6c-257.9-268-473.5-475.5-477.5-463.4c-4,10.1,44.3,334.5,106.8,717.3c62.5,384.8,110.8,703.1,106.8,707.2c-6,4-366.7-159.2-803.9-362.7c-437.2-203.5-797.9-368.7-801.9-364.7c-4,4,26.2,60.4,64.5,124.9c40.3,64.5,68.5,118.9,64.5,122.9c-4,6-141-48.4-306.2-116.9l-298.2-122.9l-268-455.3c-147.1-249.8-261.9-459.4-257.9-463.4c4-6,473.5,209.5,1043.7,475.5c626.6,292.1,1035.6,473.5,1039.6,459.4c2-14.1-62.5-439.2-147.1-945c-82.6-507.7-151.1-936.9-151.1-957s294.2,266,709.2,687.1l709.2,723.3l26.2-58.4c12.1-32.2,94.7-245.8,181.3-475.5c86.6-229.7,163.2-411,169.2-403c8.1,8.1,66.5,223.7,131,477.5c62.5,255.9,120.9,469.4,126.9,477.5c6.1,8,213.6-318.3,461.4-725.3l447.3-737.4v229.7c-2,126.9-10.1,463.4-20.2,745.5c-8.1,282.1-14.1,515.8-10.1,519.8c2,4,167.2-171.3,364.7-386.8c199.5-215.6,362.7-388.8,364.7-386.8c2,2,14.1,225.6,28.2,495.6c12.1,272,24.2,495.6,28.2,499.7s330.4-179.3,727.3-407c396.9-227.7,723.3-411,727.4-407c4,2-110.8,257.9-253.9,568.2c-143,308.3-257.9,564.1-255.9,568.2c4,2,548-336.5,1210.9-751.5C9350-3528.8,9896-3865.3,9900-3863.2c2,4-308.3,596.4-691.1,1315.7c-382.8,721.3-701.1,1319.7-705.2,1333.8c-4,12.1,219.6-44.3,499.7-124.9c282.1-82.6,511.8-147.1,515.8-145.1c2,4-151.1,272-338.5,596.4C8991.3-561,8832.1-285,8828.1-270.9c-6.1,12.1,165.2,131,388.9,272c219.6,137,429.1,267.9,465.4,292.1l64.5,44.3L9495,392c-139,32.2-268,60.4-288.1,64.5C9186.8,460.5,9017.5,363.8,8799.9,220.7z"/><path d="M1357.2-272.9c-173.3-32.2-636.7-179.3-683-215.6c-26.2-20.1,4-151.1,211.6-910.7c133-487.6,243.8-888.5,247.8-892.6c8.1-10.1,342.5,60.4,507.7,108.8c352.6,102.8,590.3,255.9,672.9,437.2c44.3,100.7,50.4,308.3,12.1,403c-64.5,151.1-207.5,261.9-374.8,288.1l-82.6,12.1l78.6,88.6c159.2,181.3,155.1,400.9-10.1,564.1C1810.6-260.8,1621.2-222.5,1357.2-272.9z M1601-651.7c68.5-80.6,64.5-209.5-8.1-280c-64.5-60.4-211.6-129-296.2-139c-58.4-6-58.4-4-114.8,201.5c-46.3,171.3-50.4,209.6-26.2,219.6C1371.3-567,1528.5-567,1601-651.7z M1830.7-1385c46.3-42.3,64.5-78.6,72.5-147.1c14.1-120.9-30.2-203.5-141-265.9c-104.8-60.4-272-106.8-294.2-82.6c-28.2,30.2-143.1,479.5-126.9,495.6c30.2,28.2,159.2,52.4,290.1,54.4C1754.2-1328.6,1774.3-1334.7,1830.7-1385z"/></g></g>
</svg>
