<svg xmlns="http://www.w3.org/2000/svg" viewBox="0 0 480.001 480.001"><path d="M333.142 350.846c.115-.115.215-.239.323-.357l129.681-129.706c10.878-10.878 16.864-25.368 16.855-40.8-.01-15.409-5.999-29.865-16.854-40.694l-97.844-97.874c-10.853-10.845-25.326-16.817-40.75-16.817-15.426 0-29.895 5.974-40.741 16.82L16.855 308.329C5.974 319.21-.012 333.713 0 349.168c.013 15.425 6.002 29.884 16.854 40.7l62.592 62.606c.061.061.127.112.188.171.174.165.349.331.534.483.082.067.171.126.255.19.175.135.349.271.532.395.07.047.145.085.215.13.205.131.412.26.627.376.051.026.103.048.154.074.239.123.482.241.732.346.033.014.067.024.101.037.269.108.54.208.819.293.034.011.07.017.104.027.276.081.556.154.841.211.082.017.165.023.247.038.239.041.479.084.724.107.33.033.663.051.998.051H383.735c5.522 0 10-4.478 10-10s-4.478-10-10-10H248.566l84.22-84.236c.118-.107.241-.207.356-.321zm-112.857 84.558H90.66l-59.675-59.689c-7.076-7.054-10.977-16.487-10.985-26.563-.008-10.106 3.897-19.582 10.996-26.681l129.825-129.803 151.091 151.091-91.627 91.645zm-45.32-256.877L297.953 55.56c7.069-7.069 16.516-10.963 26.6-10.963 10.085 0 19.536 3.895 26.609 10.962l97.85 97.88c7.08 7.063 10.982 16.493 10.989 26.557.006 10.085-3.899 19.547-10.998 26.645l-122.95 122.974-151.088-151.088z"/></svg>
